<?xml version="1.0" encoding="UTF-8"?>
<!DOCTYPE svg PUBLIC "-//W3C//DTD SVG 1.1//EN" "http://www.w3.org/Graphics/SVG/1.1/DTD/svg11.dtd">
<!-- Creator: CorelDRAW 2020 (64-Bit Evaluation Version) -->
<svg xmlns="http://www.w3.org/2000/svg" xml:space="preserve" width="19.4444in" height="13.6111in" version="1.1" style="shape-rendering:geometricPrecision; text-rendering:geometricPrecision; image-rendering:optimizeQuality; fill-rule:evenodd; clip-rule:evenodd"
viewBox="0 0 19444.44 13611.11"
 xmlns:xlink="http://www.w3.org/1999/xlink"
 xmlns:xodm="http://www.corel.com/coreldraw/odm/2003">
 <defs>
  <style type="text/css">
   <![CDATA[
    .fil9 {fill:#A0D19C;fill-rule:nonzero}
    .fil7 {fill:#A4D7CC;fill-rule:nonzero}
    .fil3 {fill:#B39166;fill-rule:nonzero}
    .fil1 {fill:#B9DEC2;fill-rule:nonzero}
    .fil2 {fill:#C5BBA7;fill-rule:nonzero}
    .fil12 {fill:#D9E5C1;fill-rule:nonzero}
    .fil5 {fill:#DEE99F;fill-rule:nonzero}
    .fil0 {fill:#F6F9E9;fill-rule:nonzero}
    .fil11 {fill:#F8A622;fill-rule:nonzero}
    .fil4 {fill:#FAC592;fill-rule:nonzero}
    .fil8 {fill:#FCC164;fill-rule:nonzero}
    .fil10 {fill:#FFD852;fill-rule:nonzero}
    .fil6 {fill:#FFEAAA;fill-rule:nonzero}
   ]]>
  </style>
 </defs>
 <g id="Layer_x0020_1">
  <metadata id="CorelCorpID_0Corel-Layer"/>
  <polygon class="fil0" points="-0,13611.11 19444.44,13611.11 19444.44,0 -0,0 "/>
  <polygon class="fil1" points="54.73,12780.96 1553.04,11999.9 1422.86,13516.07 -277.09,13791.74 "/>
  <polygon class="fil2" points="580.54,10805.35 1553.04,11999.9 54.73,12780.96 -368.98,11540.46 "/>
  <polygon class="fil3" points="-368.98,11540.46 -1058.15,10744.08 641.8,9901.76 580.54,10805.35 "/>
  <polygon class="fil4" points="-277.09,13791.74 -1762.63,12520.61 -368.98,11540.46 54.73,12780.96 "/>
  <polygon class="fil5" points="641.8,9901.76 -1600.3,9742.48 -1058.15,10744.08 "/>
  <polygon class="fil6" points="641.8,9901.76 1239.08,10682.82 1553.04,11999.9 580.54,10805.35 "/>
  <polygon class="fil7" points="1239.08,10682.82 2464.26,10728.76 1553.04,11999.9 "/>
  <polygon class="fil8" points="1422.86,13516.07 2831.83,11908.01 2464.26,10728.76 1553.04,11999.9 "/>
  <polygon class="fil1" points="-1338.92,6777.53 159.39,5996.47 41.46,7515.71 -1665.64,7783.21 "/>
  <polygon class="fil2" points="-813.11,4801.92 159.39,5996.47 -1338.92,6777.53 -1762.63,5537.03 "/>
  <polygon class="fil6" points="-750.79,3963.97 -154.57,4679.4 159.39,5996.47 -813.11,4801.92 "/>
  <polygon class="fil7" points="-154.57,4679.4 1070.61,4725.35 159.39,5996.47 "/>
  <polygon class="fil8" points="41.46,7515.71 1438.18,5881.61 1070.61,4725.35 159.39,5996.47 "/>
  <polygon class="fil1" points="3087.07,8921.61 4585.37,8140.56 4455.2,9656.72 2755.25,9932.39 "/>
  <polygon class="fil2" points="3612.89,6946 4585.37,8140.56 3087.07,8921.61 2663.36,7681.11 "/>
  <polygon class="fil3" points="2663.36,7681.11 1974.19,6884.74 3689.46,6103.68 3612.89,6946 "/>
  <polygon class="fil4" points="2755.25,9932.39 1269.71,8661.26 2663.36,7681.11 3087.07,8921.61 "/>
  <polygon class="fil9" points="2663.36,7681.11 1974.19,6884.74 1269.71,8661.26 "/>
  <polygon class="fil5" points="3689.46,6103.68 1438.18,5881.61 1974.19,6884.74 "/>
  <polygon class="fil6" points="3689.46,6103.68 4271.43,6823.47 4585.37,8140.56 3612.89,6946 "/>
  <polygon class="fil7" points="4271.43,6823.47 5484.76,6878.09 4585.37,8140.56 "/>
  <polygon class="fil10" points="1438.18,5881.61 1269.71,8661.26 1974.19,6884.74 "/>
  <polygon class="fil8" points="4455.2,9656.72 5864.17,8048.67 5484.76,6878.09 4585.37,8140.56 "/>
  <polygon class="fil11" points="41.46,7515.71 1269.71,8661.26 1438.18,5881.61 "/>
  <polygon class="fil9" points="2464.26,10728.76 2755.25,9932.39 641.8,9901.76 1239.08,10682.82 "/>
  <polygon class="fil12" points="1269.71,8661.26 641.8,9901.76 2755.25,9932.39 "/>
  <polygon class="fil2" points="1269.71,8661.26 641.8,9901.76 -568.07,8875.67 41.46,7515.71 "/>
  <polygon class="fil9" points="-1600.3,9742.48 641.8,9901.76 -568.07,8875.67 -1966.83,8589.79 "/>
  <polygon class="fil10" points="-1665.64,7783.21 41.46,7515.71 -568.07,8875.67 -1966.83,8589.79 "/>
  <polygon class="fil1" points="1693.26,2964.32 3191.57,2183.26 3073.65,3702.5 1366.55,3970 "/>
  <polygon class="fil2" points="2219.08,988.71 3191.57,2183.26 1693.26,2964.32 1269.56,1723.82 "/>
  <polygon class="fil3" points="1269.56,1723.82 580.39,927.44 2295.65,146.39 2219.08,988.71 "/>
  <polygon class="fil4" points="1366.55,3970 -77.19,2674.3 1269.56,1723.82 1693.26,2964.32 "/>
  <polygon class="fil9" points="1269.56,1723.82 580.39,927.44 -77.19,2674.3 "/>
  <polygon class="fil5" points="2295.65,146.39 44.37,-83.33 580.39,927.44 "/>
  <polygon class="fil6" points="2295.65,146.39 2877.62,866.19 3191.57,2183.26 2219.08,988.71 "/>
  <polygon class="fil7" points="2877.62,866.19 4102.8,912.13 3191.57,2183.26 "/>
  <polygon class="fil10" points="44.37,-83.33 -77.19,2674.3 580.39,927.44 "/>
  <polygon class="fil8" points="3073.65,3702.5 4470.36,2068.4 4102.8,912.13 3191.57,2183.26 "/>
  <polygon class="fil1" points="6119.26,5108.4 7617.57,4327.35 7487.39,5843.51 5787.44,6119.18 "/>
  <polygon class="fil2" points="6645.07,3132.79 7617.57,4327.35 6119.26,5108.4 5695.56,3867.9 "/>
  <polygon class="fil3" points="5695.56,3867.9 5006.39,3071.53 6721.65,2290.47 6645.07,3132.79 "/>
  <polygon class="fil4" points="5787.44,6119.18 4301.9,4848.06 5695.56,3867.9 6119.26,5108.4 "/>
  <polygon class="fil9" points="5695.56,3867.9 5006.39,3071.53 4301.9,4848.06 "/>
  <polygon class="fil5" points="6721.65,2290.47 4470.36,2068.4 5006.39,3071.53 "/>
  <polygon class="fil6" points="6721.65,2290.47 7303.61,3010.26 7617.57,4327.35 6645.07,3132.79 "/>
  <polygon class="fil7" points="7303.61,3010.26 8528.8,3056.21 7617.57,4327.35 "/>
  <polygon class="fil10" points="4470.36,2068.4 4301.9,4848.06 5006.39,3071.53 "/>
  <polygon class="fil8" points="7487.39,5843.51 8896.36,4235.46 8528.8,3056.21 7617.57,4327.35 "/>
  <polygon class="fil11" points="3073.65,3702.5 4301.9,4848.06 4470.36,2068.4 "/>
  <polygon class="fil12" points="4301.9,4848.06 3673.98,6088.56 5787.44,6119.18 "/>
  <polygon class="fil2" points="4301.9,4848.06 3673.98,6088.56 2464.12,5062.46 3073.65,3702.5 "/>
  <polygon class="fil10" points="1366.55,3970 3073.65,3702.5 2464.12,5062.46 1065.36,4776.58 "/>
  <polygon class="fil12" points="-750.79,3963.97 -77.19,2674.3 1368.26,3978.51 "/>
  <polygon class="fil2" points="34.65,-72.81 -77.19,2674.3 -1364.59,1494.09 "/>
  <polygon class="fil9" points="-750.79,3963.97 -154.57,4679.4 1065.36,4776.58 1368.26,3978.51 "/>
  <polygon class="fil1" points="1065.36,4776.58 1457.4,5919.9 3673.98,6088.56 2464.12,5062.46 "/>
  <polygon class="fil11" points="4262.23,6820.42 5484.76,6878.09 5800.69,6100.61 3641.3,6085.3 "/>
  <polygon class="fil10" points="5484.76,6878.09 5800.69,6100.61 7500.64,5840.26 "/>
  <polygon class="fil2" points="5021.4,12984.43 5993.9,14179.02 4495.59,14960 4071.89,13719.54 "/>
  <polygon class="fil3" points="4071.89,13719.54 3382.72,12923.17 5101.04,12007.35 5021.4,12984.43 "/>
  <polygon class="fil9" points="4071.89,13719.54 3382.72,12923.17 2728.01,14672.92 "/>
  <polygon class="fil5" points="5101.04,12007.35 2837.51,11920.04 3382.72,12923.17 "/>
  <polygon class="fil6" points="5101.04,12007.35 5679.94,12861.91 5993.9,14179.02 5021.4,12984.43 "/>
  <polygon class="fil7" points="5679.94,12861.91 6900.03,12912.95 5993.9,14179.02 "/>
  <polygon class="fil12" points="5679.94,12861.91 6900.03,12912.95 7196.12,12111.48 "/>
  <polygon class="fil2" points="5679.94,12861.91 5101.04,12007.35 7196.12,12111.48 "/>
  <polygon class="fil10" points="2837.51,11920.04 2728.01,14672.92 3382.72,12923.17 "/>
  <polygon class="fil6" points="2837.51,11920.04 2728.01,14672.92 1422.41,13505.14 "/>
  <polygon class="fil6" points="5876.59,8042.63 5760.35,10782.92 4454.76,9615.17 "/>
  <polygon class="fil8" points="5863.72,15695.14 7266.57,14065.7 6900.03,12912.95 5993.9,14179.02 "/>
  <polygon class="fil1" points="7527.94,11100.71 9026.25,10319.64 8908.32,11838.87 7201.22,12106.37 "/>
  <polygon class="fil2" points="8053.75,9125.08 9026.25,10319.64 7527.94,11100.71 7104.23,9860.19 "/>
  <polygon class="fil3" points="7104.23,9860.19 6415.06,9063.82 8116.07,8287.14 8053.75,9125.08 "/>
  <polygon class="fil4" points="7201.22,12106.37 5757.48,10810.68 7104.23,9860.19 7527.94,11100.71 "/>
  <polygon class="fil9" points="7104.23,9860.19 6415.06,9063.82 5757.48,10810.68 "/>
  <polygon class="fil5" points="8116.07,8287.14 5876.59,8042.63 6415.06,9063.82 "/>
  <polygon class="fil12" points="8116.07,8287.14 5876.59,8042.63 5487.78,6891.15 7543.08,5820.14 "/>
  <polygon class="fil6" points="8116.07,8287.14 8712.29,9002.57 9026.25,10319.64 8053.75,9125.08 "/>
  <polygon class="fil7" points="8712.29,9002.57 9937.48,9048.51 9026.25,10319.64 "/>
  <polygon class="fil10" points="5876.59,8042.63 5757.48,10810.68 6415.06,9063.82 "/>
  <polygon class="fil8" points="8908.32,11838.87 10305.04,10204.78 9937.48,9048.51 9026.25,10319.64 "/>
  <polygon class="fil1" points="11953.93,13244.78 13452.23,12463.72 13322.07,13979.86 11622.11,14255.56 "/>
  <polygon class="fil2" points="12479.75,11269.17 13452.23,12463.72 11953.93,13244.78 11530.22,12004.28 "/>
  <polygon class="fil3" points="11530.22,12004.28 10841.06,11207.9 12556.32,10426.85 12479.75,11269.17 "/>
  <polygon class="fil4" points="11622.11,14255.56 10136.57,12984.43 11530.22,12004.28 11953.93,13244.78 "/>
  <polygon class="fil9" points="11530.22,12004.28 10841.06,11207.9 10136.57,12984.43 "/>
  <polygon class="fil5" points="12556.32,10426.85 10305.04,10204.78 10841.06,11207.9 "/>
  <polygon class="fil6" points="12556.32,10426.85 13138.29,11146.65 13452.23,12463.72 12479.75,11269.17 "/>
  <polygon class="fil7" points="13138.29,11146.65 14351.67,11201.26 13452.23,12463.72 "/>
  <polygon class="fil10" points="10305.04,10204.78 10136.57,12984.43 10841.06,11207.9 "/>
  <polygon class="fil8" points="13322.07,13979.86 14730.97,12371.83 14351.67,11201.26 13452.23,12463.72 "/>
  <polygon class="fil11" points="8908.32,11838.87 10136.57,12984.43 10305.04,10204.78 "/>
  <polygon class="fil12" points="10136.57,12984.43 9508.67,14225 11622.11,14255.56 "/>
  <polygon class="fil2" points="10136.57,12984.43 9508.67,14225 8298.79,13198.83 8908.32,11838.87 "/>
  <polygon class="fil9" points="7266.57,14065.7 9508.67,14225 8298.79,13198.83 6900.03,12912.95 "/>
  <polygon class="fil10" points="7201.22,12106.37 8908.32,11838.87 8298.79,13198.83 6900.03,12912.95 "/>
  <polygon class="fil12" points="5101.04,12007.35 5757.48,10810.68 7202.93,12114.89 "/>
  <polygon class="fil11" points="5101.04,12007.35 5757.48,10810.68 4470.07,9630.47 "/>
  <polygon class="fil1" points="10560.14,7287.48 12058.43,6506.43 11940.51,8025.67 10233.41,8293.17 "/>
  <polygon class="fil2" points="11085.94,5311.87 12058.43,6506.43 10560.14,7287.48 10136.41,6046.98 "/>
  <polygon class="fil3" points="10136.41,6046.98 9447.25,5250.61 11162.51,4469.56 11085.94,5311.87 "/>
  <polygon class="fil4" points="10233.41,8293.17 8789.67,6997.47 10136.41,6046.98 10560.14,7287.48 "/>
  <polygon class="fil9" points="10136.41,6046.98 9447.25,5250.61 8789.67,6997.47 "/>
  <polygon class="fil5" points="11162.51,4469.56 8911.23,4239.83 9447.25,5250.61 "/>
  <polygon class="fil6" points="11162.51,4469.56 11744.48,5189.36 12058.43,6506.43 11085.94,5311.87 "/>
  <polygon class="fil7" points="11744.48,5189.36 12969.67,5235.3 12058.43,6506.43 "/>
  <polygon class="fil10" points="8911.23,4239.83 8789.67,6997.47 9447.25,5250.61 "/>
  <polygon class="fil8" points="11940.51,8025.67 13337.22,6391.57 12969.67,5235.3 12058.43,6506.43 "/>
  <polygon class="fil1" points="14986.11,9431.57 16484.44,8650.51 16354.3,10166.68 14654.3,10442.35 "/>
  <polygon class="fil2" points="15511.94,7455.96 16484.44,8650.51 14986.11,9431.57 14562.36,8191.07 "/>
  <polygon class="fil3" points="14562.36,8191.07 13873.25,7394.69 15588.47,6613.64 15511.94,7455.96 "/>
  <polygon class="fil4" points="14654.3,10442.35 13168.76,9171.22 14562.36,8191.07 14986.11,9431.57 "/>
  <polygon class="fil9" points="14562.36,8191.07 13873.25,7394.69 13168.76,9171.22 "/>
  <polygon class="fil5" points="15588.47,6613.64 13337.22,6391.57 13873.25,7394.69 "/>
  <polygon class="fil6" points="15588.47,6613.64 16170.41,7333.43 16484.44,8650.51 15511.94,7455.96 "/>
  <polygon class="fil7" points="16170.41,7333.43 17395.69,7379.37 16484.44,8650.51 "/>
  <polygon class="fil10" points="13337.22,6391.57 13168.76,9171.22 13873.25,7394.69 "/>
  <polygon class="fil8" points="16354.3,10166.68 17763.19,8558.63 17395.69,7379.37 16484.44,8650.51 "/>
  <polygon class="fil11" points="11940.51,8025.67 13168.76,9171.22 13337.22,6391.57 "/>
  <polygon class="fil12" points="13168.76,9171.22 12540.85,10411.72 14654.3,10442.35 "/>
  <polygon class="fil2" points="13168.76,9171.22 12540.85,10411.72 11330.98,9385.63 11940.51,8025.67 "/>
  <polygon class="fil10" points="10233.41,8293.17 11940.51,8025.67 11330.98,9385.63 9932.22,9099.75 "/>
  <polygon class="fil12" points="8116.07,8287.14 8789.67,6997.47 10235.11,8301.68 "/>
  <polygon class="fil11" points="8116.07,8287.14 8789.67,6997.47 7502.26,5817.26 "/>
  <polygon class="fil2" points="8901.51,4250.36 8789.67,6997.47 7502.26,5817.26 "/>
  <polygon class="fil9" points="5101.04,12007.35 2846.69,11920.04 4470.07,9630.47 "/>
  <polygon class="fil6" points="2479.14,10733.14 2846.69,11912.39 4470.07,9630.47 2747.15,9924.51 "/>
  <polygon class="fil9" points="8116.07,8287.14 8712.29,9002.57 9932.22,9099.75 10235.11,8301.68 "/>
  <polygon class="fil1" points="9932.22,9099.75 10324.26,10243.07 12540.85,10411.72 11330.98,9385.63 "/>
  <polygon class="fil11" points="13127.57,11161.96 14350.14,11219.65 14665.97,10442.17 12506.62,10426.85 "/>
  <polygon class="fil10" points="14350.14,11219.65 14665.97,10442.17 16365.97,10181.8 "/>
  <polygon class="fil1" points="1712.07,2997.98 3210.37,2216.93 3080.19,3733.09 1387.06,4012.17 "/>
  <polygon class="fil2" points="2237.87,1022.37 3210.37,2216.93 1712.07,2997.98 1288.35,1757.48 "/>
  <polygon class="fil3" points="1288.35,1757.48 599.19,961.11 2317.51,45.29 2237.87,1022.37 "/>
  <polygon class="fil4" points="1387.06,4012.17 -55.52,2710.83 1288.35,1757.48 1712.07,2997.98 "/>
  <polygon class="fil9" points="1288.35,1757.48 599.19,961.11 -55.52,2710.83 "/>
  <polygon class="fil5" points="2317.51,45.29 53.98,-42.02 599.19,961.11 "/>
  <polygon class="fil6" points="2317.51,45.29 2896.41,899.85 3210.37,2216.93 2237.87,1022.37 "/>
  <polygon class="fil7" points="2896.41,899.85 4116.5,950.9 3210.37,2216.93 "/>
  <polygon class="fil12" points="2896.41,899.85 4116.5,950.9 4412.59,149.43 "/>
  <polygon class="fil2" points="2896.41,899.85 2317.51,45.29 4412.59,149.43 "/>
  <polygon class="fil10" points="53.98,-42.02 -55.52,2710.83 599.19,961.11 "/>
  <polygon class="fil6" points="53.98,-42.02 -55.52,2710.83 -1361.11,1543.08 "/>
  <polygon class="fil8" points="3080.19,3733.09 4483.04,2103.59 4116.5,950.9 3210.37,2216.93 "/>
  <polygon class="fil1" points="6138.07,5142.07 7636.37,4361.01 7506.19,5877.18 5806.25,6152.85 "/>
  <polygon class="fil2" points="6663.87,3166.46 7636.37,4361.01 6138.07,5142.07 5714.36,3901.57 "/>
  <polygon class="fil3" points="5714.36,3901.57 5025.18,3105.19 6725.14,2262.87 6663.87,3166.46 "/>
  <polygon class="fil4" points="5806.25,6152.85 4320.7,4881.72 5714.36,3901.57 6138.07,5142.07 "/>
  <polygon class="fil9" points="5714.36,3901.57 5025.18,3105.19 4320.7,4881.72 "/>
  <polygon class="fil5" points="6725.14,2262.87 4483.04,2103.59 5025.18,3105.19 "/>
  <polygon class="fil6" points="6725.14,2262.87 7322.41,3043.93 7636.37,4361.01 6663.87,3166.46 "/>
  <polygon class="fil7" points="7322.41,3043.93 8547.59,3089.87 7636.37,4361.01 "/>
  <polygon class="fil10" points="4483.04,2103.59 4320.7,4881.72 5025.18,3105.19 "/>
  <polygon class="fil8" points="7506.19,5877.18 8915.17,4269.13 8547.59,3089.87 7636.37,4361.01 "/>
  <polygon class="fil11" points="3080.19,3733.09 4320.7,4881.72 4483.04,2103.59 "/>
  <polygon class="fil1" points="4744.41,-861.39 6242.72,-1642.36 6124.79,-123.18 4417.69,144.32 "/>
  <polygon class="fil4" points="4417.69,144.32 2973.96,-1151.39 4320.7,-2101.81 4744.41,-861.39 "/>
  <polygon class="fil1" points="9170.4,1282.72 10668.7,501.67 10538.54,2017.83 8838.58,2293.5 "/>
  <polygon class="fil2" points="9696.22,-692.92 10668.7,501.67 9170.4,1282.72 8746.69,42.22 "/>
  <polygon class="fil3" points="8746.69,42.22 8057.53,-754.17 9772.79,-1535.28 9696.22,-692.92 "/>
  <polygon class="fil4" points="8838.58,2293.5 7353.04,1022.37 8746.69,42.22 9170.4,1282.72 "/>
  <polygon class="fil9" points="8746.69,42.22 8057.53,-754.17 7353.04,1022.37 "/>
  <polygon class="fil6" points="9772.79,-1535.28 10354.76,-815.42 10668.7,501.67 9696.22,-692.92 "/>
  <polygon class="fil7" points="10354.76,-815.42 11568.09,-760.83 10668.7,501.67 "/>
  <polygon class="fil10" points="7521.51,-1757.22 7353.04,1022.37 8057.53,-754.17 "/>
  <polygon class="fil8" points="10538.54,2017.83 11947.5,409.78 11568.09,-760.83 10668.7,501.67 "/>
  <polygon class="fil11" points="6124.79,-123.18 7353.04,1022.37 7521.51,-1757.22 "/>
  <polygon class="fil9" points="8547.59,3089.87 8838.58,2293.5 6725.14,2262.87 7322.41,3043.93 "/>
  <polygon class="fil12" points="7353.04,1022.37 6725.14,2262.87 8838.58,2293.5 "/>
  <polygon class="fil2" points="7353.04,1022.37 6725.14,2262.87 5515.26,1236.78 6124.79,-123.18 "/>
  <polygon class="fil9" points="4483.04,2103.59 6725.14,2262.87 5515.26,1236.78 4116.5,950.9 "/>
  <polygon class="fil10" points="4417.69,144.32 6124.79,-123.18 5515.26,1236.78 4116.5,950.9 "/>
  <polygon class="fil12" points="-702.57,3916.87 -55.52,2710.83 1387.06,4012.17 "/>
  <polygon class="fil12" points="2317.51,45.29 2973.96,-1151.39 4419.4,152.83 "/>
  <polygon class="fil11" points="2317.51,45.29 2973.96,-1151.39 1686.54,-2331.53 "/>
  <polygon class="fil9" points="2317.51,45.29 63.17,-42.02 1686.54,-2331.53 "/>
  <polygon class="fil1" points="10578.93,7321.15 12077.23,6540.09 11947.06,8056.28 10253.91,8335.35 "/>
  <polygon class="fil2" points="11104.73,5345.54 12077.23,6540.09 10578.93,7321.15 10155.22,6080.65 "/>
  <polygon class="fil3" points="10155.22,6080.65 9466.06,5284.28 11184.37,4368.46 11104.73,5345.54 "/>
  <polygon class="fil4" points="10253.91,8335.35 8811.35,7034 10155.22,6080.65 10578.93,7321.15 "/>
  <polygon class="fil9" points="10155.22,6080.65 9466.06,5284.28 8811.35,7034 "/>
  <polygon class="fil5" points="11184.37,4368.46 8920.85,4281.15 9466.06,5284.28 "/>
  <polygon class="fil6" points="11184.37,4368.46 11763.28,5223.03 12077.23,6540.09 11104.73,5345.54 "/>
  <polygon class="fil7" points="11763.28,5223.03 12983.36,5274.07 12077.23,6540.09 "/>
  <polygon class="fil12" points="11763.28,5223.03 12983.36,5274.07 13279.46,4472.59 "/>
  <polygon class="fil2" points="11763.28,5223.03 11184.37,4368.46 13279.46,4472.59 "/>
  <polygon class="fil10" points="8920.85,4281.15 8811.35,7034 9466.06,5284.28 "/>
  <polygon class="fil6" points="8920.85,4281.15 8811.35,7034 7505.75,5866.25 "/>
  <polygon class="fil6" points="11959.93,403.75 11843.68,3144.03 10538.09,1976.28 "/>
  <polygon class="fil8" points="11947.06,8056.28 13349.9,6426.76 12983.36,5274.07 12077.23,6540.09 "/>
  <polygon class="fil1" points="15004.86,9465.24 16503.19,8684.18 16373.06,10200.35 14673.06,10476.01 "/>
  <polygon class="fil2" points="15530.69,7489.63 16503.19,8684.18 15004.86,9465.24 14581.25,8224.74 "/>
  <polygon class="fil3" points="14581.25,8224.74 13892.08,7428.36 15591.94,6586.04 15530.69,7489.63 "/>
  <polygon class="fil4" points="14673.06,10476.01 13187.57,9204.89 14581.25,8224.74 15004.86,9465.24 "/>
  <polygon class="fil9" points="14581.25,8224.74 13892.08,7428.36 13187.57,9204.89 "/>
  <polygon class="fil5" points="15591.94,6586.04 13349.9,6426.76 13892.08,7428.36 "/>
  <polygon class="fil6" points="15591.94,6586.04 16189.3,7367.09 16503.19,8684.18 15530.69,7489.63 "/>
  <polygon class="fil7" points="16189.3,7367.09 17414.44,7413.04 16503.19,8684.18 "/>
  <polygon class="fil10" points="13349.9,6426.76 13187.57,9204.89 13892.08,7428.36 "/>
  <polygon class="fil8" points="16373.06,10200.35 17782.08,8592.29 17414.44,7413.04 16503.19,8684.18 "/>
  <polygon class="fil11" points="11947.06,8056.28 13187.57,9204.89 13349.9,6426.76 "/>
  <polygon class="fil1" points="13611.28,3461.82 15109.58,2680.75 14991.67,4199.98 13284.56,4467.48 "/>
  <polygon class="fil2" points="14137.08,1486.19 15109.58,2680.75 13611.28,3461.82 13187.57,2221.3 "/>
  <polygon class="fil3" points="13187.57,2221.3 12498.39,1424.93 14199.44,648.25 14137.08,1486.19 "/>
  <polygon class="fil4" points="13284.56,4467.48 11840.82,3171.79 13187.57,2221.3 13611.28,3461.82 "/>
  <polygon class="fil9" points="13187.57,2221.3 12498.39,1424.93 11840.82,3171.79 "/>
  <polygon class="fil5" points="14199.44,648.25 11959.93,403.75 12498.39,1424.93 "/>
  <polygon class="fil12" points="14199.44,648.25 11959.93,403.75 11571.11,-747.78 13626.41,-1818.75 "/>
  <polygon class="fil6" points="14199.44,648.25 14795.56,1363.68 15109.58,2680.75 14137.08,1486.19 "/>
  <polygon class="fil7" points="14795.56,1363.68 16020.83,1409.63 15109.58,2680.75 "/>
  <polygon class="fil10" points="11959.93,403.75 11840.82,3171.79 12498.39,1424.93 "/>
  <polygon class="fil8" points="14991.67,4199.98 16388.33,2565.89 16020.83,1409.63 15109.58,2680.75 "/>
  <polygon class="fil1" points="18037.22,5605.89 19535.56,4824.83 19405.41,6341 17705.41,6616.68 "/>
  <polygon class="fil2" points="18563.06,3630.28 19535.56,4824.83 18037.22,5605.89 17613.61,4365.39 "/>
  <polygon class="fil3" points="17613.61,4365.39 16924.44,3569.01 18639.72,2787.96 18563.06,3630.28 "/>
  <polygon class="fil4" points="17705.41,6616.68 16219.86,5345.54 17613.61,4365.39 18037.22,5605.89 "/>
  <polygon class="fil9" points="17613.61,4365.39 16924.44,3569.01 16219.86,5345.54 "/>
  <polygon class="fil5" points="18639.72,2787.96 16388.33,2565.89 16924.44,3569.01 "/>
  <polygon class="fil6" points="18639.72,2787.96 19221.67,3507.76 19535.56,4824.83 18563.06,3630.28 "/>
  <polygon class="fil7" points="19221.67,3507.76 20435,3562.37 19535.56,4824.83 "/>
  <polygon class="fil10" points="16388.33,2565.89 16219.86,5345.54 16924.44,3569.01 "/>
  <polygon class="fil8" points="19405.41,6341 20814.3,4732.94 20435,3562.37 19535.56,4824.83 "/>
  <polygon class="fil11" points="14991.67,4199.98 16219.86,5345.54 16388.33,2565.89 "/>
  <polygon class="fil9" points="17414.44,7413.04 17705.41,6616.68 15591.94,6586.04 16189.3,7367.09 "/>
  <polygon class="fil12" points="16219.86,5345.54 15591.94,6586.04 17705.41,6616.68 "/>
  <polygon class="fil2" points="16219.86,5345.54 15591.94,6586.04 14382.08,5559.94 14991.67,4199.98 "/>
  <polygon class="fil9" points="13349.9,6426.76 15591.94,6586.04 14382.08,5559.94 12983.36,5274.07 "/>
  <polygon class="fil10" points="13284.56,4467.48 14991.67,4199.98 14382.08,5559.94 12983.36,5274.07 "/>
  <polygon class="fil12" points="8164.29,8240.06 8811.35,7034 10253.91,8335.35 "/>
  <polygon class="fil12" points="11184.37,4368.46 11840.82,3171.79 13286.26,4476 "/>
  <polygon class="fil11" points="11184.37,4368.46 11840.82,3171.79 10553.4,1991.58 "/>
  <polygon class="fil1" points="16643.47,-351.39 18141.8,-1132.5 18023.89,386.78 16316.8,654.28 "/>
  <polygon class="fil4" points="16316.8,654.28 14873.06,-641.39 16219.72,-1591.94 16643.47,-351.39 "/>
  <polygon class="fil8" points="18023.89,386.78 19420.56,-1247.36 19053.06,-2403.61 18141.8,-1132.5 "/>
  <polygon class="fil4" points="20737.64,2803.46 19252.08,1532.33 20645.69,552.18 21069.44,1792.68 "/>
  <polygon class="fil9" points="20645.69,552.18 19956.53,-244.2 19252.08,1532.33 "/>
  <polygon class="fil10" points="19420.56,-1247.36 19252.08,1532.33 19956.53,-244.2 "/>
  <polygon class="fil11" points="18023.89,386.78 19252.08,1532.33 19420.56,-1247.36 "/>
  <polygon class="fil12" points="19252.08,1532.33 18624.17,2772.83 20737.64,2803.46 "/>
  <polygon class="fil2" points="19252.08,1532.33 18624.17,2772.83 17414.3,1746.74 18023.89,386.78 "/>
  <polygon class="fil10" points="16316.8,654.28 18023.89,386.78 17414.3,1746.74 16015.56,1460.86 "/>
  <polygon class="fil12" points="14199.44,648.25 14873.06,-641.39 16318.47,662.79 "/>
  <polygon class="fil11" points="14199.44,648.25 14873.06,-641.39 13585.59,-1821.67 "/>
  <polygon class="fil9" points="11184.37,4368.46 8930.03,4281.15 10553.4,1991.58 "/>
  <polygon class="fil6" points="8562.47,3094.25 8930.03,4273.5 10553.4,1991.58 8830.48,2285.63 "/>
  <polygon class="fil9" points="14199.44,648.25 14795.56,1363.68 16015.56,1460.86 16318.47,662.79 "/>
  <polygon class="fil1" points="16015.56,1460.86 16407.64,2604.18 18624.17,2772.83 17414.3,1746.74 "/>
  <polygon class="fil11" points="19210.83,3523.07 20433.47,3580.76 20749.3,2803.28 18590,2787.96 "/>
  <polygon class="fil6" points="14725,12387.51 14608.75,15127.78 13303.18,13960 "/>
  <polygon class="fil2" points="16902.22,13469.97 17874.72,14664.58 16376.39,15445.56 15952.64,14205.14 "/>
  <polygon class="fil3" points="15952.64,14205.14 15263.47,13408.71 16964.44,12632.02 16902.22,13469.97 "/>
  <polygon class="fil9" points="15952.64,14205.14 15263.47,13408.71 14605.83,15155.56 "/>
  <polygon class="fil5" points="16964.44,12632.02 14725,12387.51 15263.47,13408.71 "/>
  <polygon class="fil12" points="16964.44,12632.02 14725,12387.51 14336.25,11236.04 16391.53,10165.03 "/>
  <polygon class="fil6" points="16964.44,12632.02 17560.69,13347.45 17874.72,14664.58 16902.22,13469.97 "/>
  <polygon class="fil7" points="17560.69,13347.45 18785.83,13393.4 17874.72,14664.58 "/>
  <polygon class="fil10" points="14725,12387.51 14605.83,15155.56 15263.47,13408.71 "/>
  <polygon class="fil8" points="17756.8,16183.75 19153.47,14549.72 18785.83,13393.4 17874.72,14664.58 "/>
  <polygon class="fil1" points="19408.61,11632.37 20906.8,10851.32 20788.89,12370.56 19081.8,12638.05 "/>
  <polygon class="fil2" points="19934.3,9656.76 20906.8,10851.32 19408.61,11632.37 18984.86,10391.87 "/>
  <polygon class="fil3" points="18984.86,10391.87 18295.69,9595.5 20010.97,8814.44 19934.3,9656.76 "/>
  <polygon class="fil4" points="19081.8,12638.05 17638.06,11342.36 18984.86,10391.87 19408.61,11632.37 "/>
  <polygon class="fil9" points="18984.86,10391.87 18295.69,9595.5 17638.06,11342.36 "/>
  <polygon class="fil5" points="20010.97,8814.44 17759.58,8584.72 18295.69,9595.5 "/>
  <polygon class="fil10" points="17759.58,8584.72 17638.06,11342.36 18295.69,9595.5 "/>
  <polygon class="fil10" points="19081.8,12638.05 20788.89,12370.56 20179.44,13730.51 18780.69,13444.64 "/>
  <polygon class="fil12" points="16964.44,12632.02 17638.06,11342.36 19083.47,12646.56 "/>
  <polygon class="fil11" points="16964.44,12632.02 17638.06,11342.36 16350.69,10162.15 "/>
  <polygon class="fil9" points="16964.44,12632.02 17560.69,13347.45 18780.69,13444.64 19083.47,12646.56 "/>
  <polygon class="fil1" points="18780.69,13444.64 19172.64,14587.92 21389.3,14756.67 20179.44,13730.51 "/>
  <polygon class="fil1" points="19427.36,11666.04 20925.69,10884.98 20795.41,12401.15 19102.36,12680.24 "/>
  <polygon class="fil2" points="19953.19,9690.43 20925.69,10884.98 19427.36,11666.04 19003.61,10425.54 "/>
  <polygon class="fil3" points="19003.61,10425.54 18314.44,9629.17 20032.78,8713.33 19953.19,9690.43 "/>
  <polygon class="fil4" points="19102.36,12680.24 17659.72,11378.89 19003.61,10425.54 19427.36,11666.04 "/>
  <polygon class="fil9" points="19003.61,10425.54 18314.44,9629.17 17659.72,11378.89 "/>
  <polygon class="fil5" points="20032.78,8713.33 17769.3,8626.04 18314.44,9629.17 "/>
  <polygon class="fil10" points="17769.3,8626.04 17659.72,11378.89 18314.44,9629.17 "/>
  <polygon class="fil6" points="17769.3,8626.04 17659.72,11378.89 16354.17,10187.53 "/>
  <polygon class="fil6" points="20808.33,4748.63 20692.08,7488.92 19386.53,6321.15 "/>
  <polygon class="fil12" points="17012.64,12584.93 17659.72,11378.89 19102.36,12680.24 "/>
  <polygon class="fil11" points="20032.78,8713.33 20694.44,7500 19401.8,6336.47 "/>
  <polygon class="fil9" points="20032.78,8713.33 17778.47,8626.04 19401.8,6336.47 "/>
  <polygon class="fil6" points="17410.83,7439.14 17778.47,8618.39 19401.8,6336.47 17678.89,6630.51 "/>
 </g>
</svg>
